<svg width="1512" height="567" viewBox="0 0 1512 567" fill="none" xmlns="http://www.w3.org/2000/svg">
<rect width="1512" height="567" fill="url(#paint0_linear_24_91)"/>
<g filter="url(#filter0_d_24_91)">
<path d="M76 294.693C76 284.758 84.0352 276.704 93.947 276.704H145.993C155.905 276.704 163.94 284.758 163.94 294.693V444.01C163.94 453.946 155.905 462 145.993 462H93.947C84.0352 462 76 453.946 76 444.01V294.693Z" fill="url(#paint1_linear_24_91)"/>
<path d="M259.06 208.342C259.06 198.406 267.095 190.352 277.007 190.352H329.053C338.965 190.352 347 198.406 347 208.342V444.01C347 453.946 338.965 462 329.053 462H277.007C267.095 462 259.06 453.946 259.06 444.01V208.342Z" fill="url(#paint2_linear_24_91)"/>
<path d="M329.053 373.849C338.965 373.849 347 381.904 347 391.839V444.01C347 453.946 338.965 462 329.053 462H93.947C84.0352 462 76 453.946 76 444.01L76 391.839C76 381.904 84.0352 373.849 93.947 373.849H329.053Z" fill="url(#paint3_linear_24_91)"/>
<path d="M329.053 190.352C338.965 190.352 347 198.406 347 208.342V260.513C347 270.448 338.965 278.503 329.053 278.503H180.093C170.181 278.503 162.146 270.448 162.146 260.513V208.342C162.146 198.406 170.181 190.352 180.093 190.352H329.053Z" fill="url(#paint4_linear_24_91)"/>
<path d="M145.993 104C155.905 104 163.94 112.054 163.94 121.99V172.362C163.94 182.297 155.905 190.352 145.993 190.352H93.947C84.0352 190.352 76 182.297 76 172.362L76 121.99C76 112.054 84.0352 104 93.947 104L145.993 104Z" fill="url(#paint5_linear_24_91)"/>
<path d="M198.937 278.503H241.113C251.024 278.503 259.06 286.557 259.06 296.492V355.859C259.06 365.795 251.024 373.849 241.113 373.849H181.887C171.976 373.849 163.94 365.795 163.94 355.859V313.583L153.172 324.377V382.844H269.828V265.91H211.5L198.937 278.503Z" fill="url(#paint6_linear_24_91)"/>
</g>
<path d="M385.336 202H427.864C449.272 202 458.488 193.264 458.488 181.648C458.488 173.296 453.976 167.056 444.28 164.944C451.96 163.12 455.896 158.416 455.896 151.792C455.896 142.192 446.968 134.8 429.208 134.8H385.336V202ZM408.856 186.352V173.968H423.448C429.784 173.968 432.664 175.888 432.664 179.728C432.664 184.144 429.592 186.352 422.776 186.352H408.856ZM408.856 161.584V150.448H422.488C428.056 150.448 430.36 152.368 430.36 156.304C430.36 159.664 427.864 161.584 422.68 161.584H408.856ZM466.876 202H490.396V149.68H466.876V202ZM465.916 136.528C465.916 142.192 471.292 146.128 478.78 146.128C486.172 146.128 491.356 142.192 491.356 136.528C491.356 131.056 486.172 127.12 478.78 127.12C471.292 127.12 465.916 131.056 465.916 136.528ZM512.613 202H536.133V162.64H553.125V145.84H536.133V132.592L512.613 136.048V145.84H496.965V162.64H512.613V202ZM571.113 202H594.633V162.64H611.625V145.84H594.633V132.592L571.113 136.048V145.84H555.465V162.64H571.113V202ZM624.525 220.24H651.021L688.653 145.84H663.789L650.253 176.08L637.581 145.84H612.524L637.101 196.912L624.525 220.24Z" fill="white"/>
<line x1="384" y1="235" x2="1314" y2="235" stroke="url(#paint7_linear_24_91)" stroke-width="10" stroke-linecap="round"/>
<path d="M418.296 256.84H411.64L399.288 277.96L386.616 256.392L380.6 257.672L396.216 283.464V301H402.232V283.464L418.296 256.84ZM443.101 285.768C443.101 275.72 437.085 269.832 428.893 269.832C420.765 269.832 414.877 275.72 414.877 285.768C414.877 295.816 420.765 301.64 428.893 301.64C437.085 301.64 443.101 295.816 443.101 285.768ZM437.341 285.768C437.341 292.168 434.525 296.904 428.893 296.904C423.517 296.904 420.637 292.04 420.637 285.768C420.637 279.368 423.389 274.632 428.893 274.632C434.397 274.632 437.341 279.496 437.341 285.768ZM475.123 301V270.472H469.427V291.592C466.675 294.536 463.603 296.52 460.595 296.52C457.267 296.52 455.923 294.408 455.923 291.272V270.472H450.227V292.68C450.227 298.184 453.235 301.64 459.059 301.64C463.347 301.64 466.995 299.272 469.875 296.584L470.579 301H475.123ZM501.193 275.272L500.297 269.832C495.305 270.088 491.785 273.224 489.609 276.68L488.649 270.472H484.105V301H489.801V282.952C491.849 278.92 496.137 275.528 501.193 275.272ZM996.577 301V254.792L990.881 255.688V271.432C988.961 270.664 986.209 270.088 983.201 270.088C975.777 270.088 969.377 275.464 969.377 286.6C969.377 296.84 974.817 301.64 981.409 301.64C985.889 301.64 989.025 299.336 991.329 296.584L992.033 301H996.577ZM990.881 291.208C988.449 294.472 985.761 296.584 982.241 296.584C978.145 296.584 975.137 293.064 975.137 286.344C975.137 278.792 978.593 274.888 983.393 274.888C986.657 274.888 988.513 275.4 990.881 276.616V291.208ZM1012.45 260.744C1012.45 258.76 1010.85 257.096 1008.87 257.096C1006.89 257.096 1005.22 258.76 1005.22 260.744C1005.22 262.728 1006.89 264.328 1008.87 264.328C1010.85 264.328 1012.45 262.728 1012.45 260.744ZM1011.69 301V270.472H1005.99V301H1011.69ZM1042.42 292.488C1042.42 286.664 1039.03 284.488 1031.47 282.568C1026.67 281.352 1025.14 280.2 1025.14 278.152C1025.14 275.976 1026.93 274.632 1030.39 274.632C1033.59 274.632 1036.98 275.72 1039.67 277.256L1040.56 271.88C1037.68 270.6 1034.29 269.832 1030.51 269.832C1023.86 269.832 1019.76 273.416 1019.76 278.28C1019.76 283.72 1022.64 285.896 1029.81 287.688C1035.31 289.032 1037.04 290.056 1037.04 292.872C1037.04 295.432 1034.74 296.904 1030.83 296.904C1026.67 296.904 1022.96 295.368 1020.08 293.384L1019.25 298.76C1021.87 300.232 1026.35 301.64 1030.39 301.64C1038.26 301.64 1042.42 298.056 1042.42 292.488ZM1072.33 298.376L1071.5 293.256C1068.36 295.944 1065.67 296.648 1062.6 296.648C1057.23 296.648 1053.45 293.128 1053.45 285.704C1053.45 278.6 1056.97 274.824 1061.96 274.824C1065.48 274.824 1068.36 275.912 1071.18 278.216L1072.01 272.648C1069.71 270.984 1066.51 269.832 1062.03 269.832C1054.09 269.832 1047.69 275.336 1047.69 285.768C1047.69 295.944 1053.71 301.64 1061.9 301.64C1065.99 301.64 1069.19 300.744 1072.33 298.376ZM1105.35 285.768C1105.35 275.72 1099.34 269.832 1091.14 269.832C1083.02 269.832 1077.13 275.72 1077.13 285.768C1077.13 295.816 1083.02 301.64 1091.14 301.64C1099.34 301.64 1105.35 295.816 1105.35 285.768ZM1099.59 285.768C1099.59 292.168 1096.78 296.904 1091.14 296.904C1085.77 296.904 1082.89 292.04 1082.89 285.768C1082.89 279.368 1085.64 274.632 1091.14 274.632C1096.65 274.632 1099.59 279.496 1099.59 285.768ZM1129.69 275.272L1128.8 269.832C1123.81 270.088 1120.29 273.224 1118.11 276.68L1117.15 270.472H1112.61V301H1118.3V282.952C1120.35 278.92 1124.64 275.528 1129.69 275.272ZM1159.89 301V254.792L1154.19 255.688V271.432C1152.27 270.664 1149.52 270.088 1146.51 270.088C1139.09 270.088 1132.69 275.464 1132.69 286.6C1132.69 296.84 1138.13 301.64 1144.72 301.64C1149.2 301.64 1152.34 299.336 1154.64 296.584L1155.35 301H1159.89ZM1154.19 291.208C1151.76 294.472 1149.07 296.584 1145.55 296.584C1141.46 296.584 1138.45 293.064 1138.45 286.344C1138.45 278.792 1141.91 274.888 1146.71 274.888C1149.97 274.888 1151.83 275.4 1154.19 276.616V291.208ZM1209.8 284.872C1209.8 274.696 1204.36 269.832 1197.77 269.832C1193.61 269.832 1190.66 271.944 1188.61 274.056V254.792L1182.92 255.688V299.464C1186.95 300.68 1190.21 301.384 1194.82 301.384C1203.65 301.384 1209.8 296.008 1209.8 284.872ZM1204.04 285.128C1204.04 293 1200.71 296.52 1194.76 296.52C1191.94 296.52 1190.53 296.2 1188.61 295.496V279.88C1190.92 277 1193.73 274.888 1196.93 274.888C1201.03 274.888 1204.04 278.472 1204.04 285.128ZM1243.54 285.768C1243.54 275.72 1237.52 269.832 1229.33 269.832C1221.2 269.832 1215.31 275.72 1215.31 285.768C1215.31 295.816 1221.2 301.64 1229.33 301.64C1237.52 301.64 1243.54 295.816 1243.54 285.768ZM1237.78 285.768C1237.78 292.168 1234.96 296.904 1229.33 296.904C1223.95 296.904 1221.07 292.04 1221.07 285.768C1221.07 279.368 1223.83 274.632 1229.33 274.632C1234.83 274.632 1237.78 279.496 1237.78 285.768ZM1265.45 301.128L1264.68 296.264C1263.98 296.392 1263.08 296.456 1262.06 296.456C1258.86 296.456 1257.83 294.92 1257.83 292.424V275.272H1265.19L1264.42 270.472H1257.83V259.464L1252.26 260.296V270.472H1247.66V275.272H1252.26V293.448C1252.26 299.592 1255.78 301.512 1261.16 301.512C1263.14 301.512 1264.49 301.32 1265.45 301.128ZM1279.4 293.384H1272.8L1269.6 308.744L1272.74 309.512L1279.4 293.384ZM423.416 344.472H417.848L411.32 366.616L404.536 344.472H399.736L392.952 366.616L386.232 344.024L380.792 344.92L390.648 375H395.064L402.04 351.896L409.08 375H413.56L423.416 344.472ZM454.564 375V352.792C454.564 347.288 451.492 343.832 445.732 343.832C441.38 343.832 437.86 346.264 435.364 348.504V328.792L429.668 329.688V375H435.364V353.88C438.116 350.936 441.188 348.952 444.196 348.952C447.524 348.952 448.868 351.064 448.868 354.2V375H454.564ZM470.33 334.744C470.33 332.76 468.73 331.096 466.746 331.096C464.762 331.096 463.098 332.76 463.098 334.744C463.098 336.728 464.762 338.328 466.746 338.328C468.73 338.328 470.33 336.728 470.33 334.744ZM469.562 375V344.472H463.866V375H469.562ZM501.892 372.376L501.06 367.256C497.924 369.944 495.236 370.648 492.164 370.648C486.788 370.648 483.012 367.128 483.012 359.704C483.012 352.6 486.532 348.824 491.524 348.824C495.044 348.824 497.924 349.912 500.74 352.216L501.572 346.648C499.268 344.984 496.068 343.832 491.588 343.832C483.652 343.832 477.252 349.336 477.252 359.768C477.252 369.944 483.268 375.64 491.46 375.64C495.556 375.64 498.756 374.744 501.892 372.376ZM533.876 375V352.792C533.876 347.288 530.804 343.832 525.044 343.832C520.692 343.832 517.172 346.264 514.676 348.504V328.792L508.98 329.688V375H514.676V353.88C517.428 350.936 520.5 348.952 523.508 348.952C526.836 348.952 528.18 351.064 528.18 354.2V375H533.876ZM881.371 375V352.792C881.371 347.288 878.555 343.832 872.731 343.832C868.443 343.832 864.731 346.264 861.979 348.888C860.827 345.752 858.395 343.832 853.915 343.832C849.627 343.832 846.171 346.264 843.291 348.888L842.587 344.472H838.043V375H843.739V353.88C846.491 350.936 849.371 348.952 852.378 348.952C855.707 348.952 856.859 351.064 856.859 354.2V375H862.555V353.88C865.307 350.936 868.187 348.952 871.194 348.952C874.523 348.952 875.675 351.064 875.675 354.2V375H881.371ZM913.334 375V353.624C913.334 346.84 909.75 343.832 902.326 343.832C897.59 343.832 894.134 344.92 890.486 346.392L891.254 351.32C894.582 349.848 898.102 348.696 901.814 348.696C905.334 348.696 907.638 350.04 907.638 353.88V355.16C894.902 356.504 888.374 359.512 888.374 367.128C888.374 372.312 891.83 375.64 897.334 375.64C902.326 375.64 905.654 373.4 908.086 370.904L908.726 375H913.334ZM907.638 366.616C905.078 369.24 901.878 370.904 898.55 370.904C895.67 370.904 894.006 369.304 894.006 366.808C894.006 363.672 896.374 360.6 907.638 359.512V366.616ZM947.064 375V352.792C947.064 347.288 943.992 343.832 938.232 343.832C933.88 343.832 930.296 346.264 927.416 348.888L926.712 344.472H922.168V375H927.864V353.88C930.616 350.936 933.688 348.952 936.696 348.952C940.024 348.952 941.368 351.064 941.368 354.2V375H947.064ZM980.315 344.472H974.491L966.363 368.344L958.043 344.024L952.411 344.92L963.547 375.128L962.395 378.264C961.499 380.696 959.899 381.848 957.531 381.848C956.443 381.848 955.291 381.656 954.331 381.4L955.099 386.392C955.675 386.52 956.315 386.648 957.083 386.648C962.139 386.648 965.403 384.792 968.027 377.688L980.315 344.472ZM1027.24 358.872C1027.24 348.696 1021.8 343.832 1015.2 343.832C1011.04 343.832 1008.1 345.944 1006.05 348.056V328.792L1000.36 329.688V373.464C1004.39 374.68 1007.65 375.384 1012.26 375.384C1021.09 375.384 1027.24 370.008 1027.24 358.872ZM1021.48 359.128C1021.48 367 1018.15 370.52 1012.2 370.52C1009.38 370.52 1007.97 370.2 1006.05 369.496V353.88C1008.36 351 1011.17 348.888 1014.37 348.888C1018.47 348.888 1021.48 352.472 1021.48 359.128ZM1060.98 359.768C1060.98 349.72 1054.96 343.832 1046.77 343.832C1038.64 343.832 1032.75 349.72 1032.75 359.768C1032.75 369.816 1038.64 375.64 1046.77 375.64C1054.96 375.64 1060.98 369.816 1060.98 359.768ZM1055.22 359.768C1055.22 366.168 1052.4 370.904 1046.77 370.904C1041.39 370.904 1038.51 366.04 1038.51 359.768C1038.51 353.368 1041.26 348.632 1046.77 348.632C1052.27 348.632 1055.22 353.496 1055.22 359.768ZM1082.89 375.128L1082.12 370.264C1081.41 370.392 1080.52 370.456 1079.49 370.456C1076.29 370.456 1075.27 368.92 1075.27 366.424V349.272H1082.63L1081.86 344.472H1075.27V333.464L1069.7 334.296V344.472H1065.09V349.272H1069.7V367.448C1069.7 373.592 1073.22 375.512 1078.6 375.512C1080.58 375.512 1081.93 375.32 1082.89 375.128ZM1111.1 366.488C1111.1 360.664 1107.71 358.488 1100.16 356.568C1095.36 355.352 1093.82 354.2 1093.82 352.152C1093.82 349.976 1095.62 348.632 1099.07 348.632C1102.27 348.632 1105.66 349.72 1108.35 351.256L1109.25 345.88C1106.37 344.6 1102.98 343.832 1099.2 343.832C1092.54 343.832 1088.45 347.416 1088.45 352.28C1088.45 357.72 1091.33 359.896 1098.5 361.688C1104 363.032 1105.73 364.056 1105.73 366.872C1105.73 369.432 1103.42 370.904 1099.52 370.904C1095.36 370.904 1091.65 369.368 1088.77 367.384L1087.94 372.76C1090.56 374.232 1095.04 375.64 1099.07 375.64C1106.94 375.64 1111.1 372.056 1111.1 366.488ZM1153.48 366.488C1153.48 360.664 1150.09 358.488 1142.54 356.568C1137.74 355.352 1136.2 354.2 1136.2 352.152C1136.2 349.976 1137.99 348.632 1141.45 348.632C1144.65 348.632 1148.04 349.72 1150.73 351.256L1151.62 345.88C1148.74 344.6 1145.35 343.832 1141.58 343.832C1134.92 343.832 1130.82 347.416 1130.82 352.28C1130.82 357.72 1133.7 359.896 1140.87 361.688C1146.38 363.032 1148.1 364.056 1148.1 366.872C1148.1 369.432 1145.8 370.904 1141.9 370.904C1137.74 370.904 1134.02 369.368 1131.14 367.384L1130.31 372.76C1132.94 374.232 1137.42 375.64 1141.45 375.64C1149.32 375.64 1153.48 372.056 1153.48 366.488ZM1186.98 359.768C1186.98 349.72 1180.96 343.832 1172.77 343.832C1164.64 343.832 1158.75 349.72 1158.75 359.768C1158.75 369.816 1164.64 375.64 1172.77 375.64C1180.96 375.64 1186.98 369.816 1186.98 359.768ZM1181.22 359.768C1181.22 366.168 1178.4 370.904 1172.77 370.904C1167.39 370.904 1164.51 366.04 1164.51 359.768C1164.51 353.368 1167.26 348.632 1172.77 348.632C1178.27 348.632 1181.22 353.496 1181.22 359.768ZM1233.25 344.472H1227.43L1219.3 368.344L1210.98 344.024L1205.35 344.92L1216.48 375.128L1215.33 378.264C1214.44 380.696 1212.84 381.848 1210.47 381.848C1209.38 381.848 1208.23 381.656 1207.27 381.4L1208.04 386.392C1208.61 386.52 1209.25 386.648 1210.02 386.648C1215.08 386.648 1218.34 384.792 1220.96 377.688L1233.25 344.472ZM1264.73 359.768C1264.73 349.72 1258.71 343.832 1250.52 343.832C1242.39 343.832 1236.5 349.72 1236.5 359.768C1236.5 369.816 1242.39 375.64 1250.52 375.64C1258.71 375.64 1264.73 369.816 1264.73 359.768ZM1258.97 359.768C1258.97 366.168 1256.15 370.904 1250.52 370.904C1245.14 370.904 1242.26 366.04 1242.26 359.768C1242.26 353.368 1245.01 348.632 1250.52 348.632C1256.02 348.632 1258.97 353.496 1258.97 359.768ZM1296.75 375V344.472H1291.05V365.592C1288.3 368.536 1285.23 370.52 1282.22 370.52C1278.89 370.52 1277.55 368.408 1277.55 365.272V344.472H1271.85V366.68C1271.85 372.184 1274.86 375.64 1280.68 375.64C1284.97 375.64 1288.62 373.272 1291.5 370.584L1292.2 375H1296.75ZM408.952 449V402.792L403.256 403.688V419.432C401.336 418.664 398.584 418.088 395.576 418.088C388.152 418.088 381.752 423.464 381.752 434.6C381.752 444.84 387.192 449.64 393.784 449.64C398.264 449.64 401.4 447.336 403.704 444.584L404.408 449H408.952ZM403.256 439.208C400.824 442.472 398.136 444.584 394.616 444.584C390.52 444.584 387.512 441.064 387.512 434.344C387.512 426.792 390.968 422.888 395.768 422.888C399.032 422.888 400.888 423.4 403.256 424.616V439.208ZM444.414 433.768C444.414 423.72 438.398 417.832 430.206 417.832C422.078 417.832 416.19 423.72 416.19 433.768C416.19 443.816 422.078 449.64 430.206 449.64C438.398 449.64 444.414 443.816 444.414 433.768ZM438.654 433.768C438.654 440.168 435.838 444.904 430.206 444.904C424.83 444.904 421.95 440.04 421.95 433.768C421.95 427.368 424.702 422.632 430.206 422.632C435.71 422.632 438.654 427.496 438.654 433.768ZM476.564 449V426.792C476.564 421.288 473.492 417.832 467.732 417.832C463.38 417.832 459.796 420.264 456.916 422.888L456.212 418.472H451.668V449H457.364V427.88C460.116 424.936 463.188 422.952 466.196 422.952C469.524 422.952 470.868 425.064 470.868 428.2V449H476.564ZM492.714 404.84H486.122L484.266 418.984L487.466 419.752L492.714 404.84ZM514.574 449.128L513.806 444.264C513.102 444.392 512.206 444.456 511.182 444.456C507.982 444.456 506.958 442.92 506.958 440.424V423.272H514.318L513.55 418.472H506.958V407.464L501.39 408.296V418.472H496.782V423.272H501.39V441.448C501.39 447.592 504.91 449.512 510.286 449.512C512.27 449.512 513.614 449.32 514.574 449.128ZM560.247 433.128C560.247 424.68 556.151 417.832 547.255 417.832C539.575 417.832 533.815 423.848 533.815 433.64C533.815 444.84 540.023 449.64 547.958 449.64C553.015 449.64 556.919 448.104 560.183 445.544L559.351 440.424C556.023 443.048 552.823 444.776 548.407 444.776C543.095 444.776 539.703 441.448 539.51 434.344H560.247C560.247 433.96 560.247 433.448 560.247 433.128ZM554.487 430.056H539.767C540.663 424.808 543.671 422.312 547.191 422.312C551.607 422.312 553.783 425.128 554.487 430.056ZM592.376 449V426.792C592.376 421.288 589.304 417.832 583.544 417.832C579.192 417.832 575.608 420.264 572.728 422.888L572.024 418.472H567.48V449H573.176V427.88C575.928 424.936 579 422.952 582.008 422.952C585.336 422.952 586.68 425.064 586.68 428.2V449H592.376ZM626.702 449V402.792L621.006 403.688V419.432C619.086 418.664 616.334 418.088 613.326 418.088C605.902 418.088 599.502 423.464 599.502 434.6C599.502 444.84 604.942 449.64 611.534 449.64C616.014 449.64 619.15 447.336 621.454 444.584L622.158 449H626.702ZM621.006 439.208C618.574 442.472 615.886 444.584 612.366 444.584C608.27 444.584 605.262 441.064 605.262 434.344C605.262 426.792 608.718 422.888 613.518 422.888C616.782 422.888 618.638 423.4 621.006 424.616V439.208ZM674.498 449V418.472H668.802V439.592C666.05 442.536 662.978 444.52 659.97 444.52C656.642 444.52 655.298 442.408 655.298 439.272V418.472H649.602V440.68C649.602 446.184 652.61 449.64 658.434 449.64C662.722 449.64 666.37 447.272 669.25 444.584L669.954 449H674.498ZM710.68 432.872C710.68 422.696 705.24 417.832 698.648 417.832C694.168 417.832 691.032 420.2 688.728 422.888L688.024 418.472H683.48V460.904L689.176 460.072V448.04C691.096 448.808 693.848 449.384 696.856 449.384C704.28 449.384 710.68 444.008 710.68 432.872ZM704.92 433.128C704.92 440.68 701.4 444.584 696.6 444.584C693.336 444.584 691.48 444.072 689.176 442.92V428.264C691.608 425 694.296 422.888 697.752 422.888C701.912 422.888 704.92 426.472 704.92 433.128ZM771.916 418.472H766.348L759.82 440.616L753.036 418.472H748.236L741.452 440.616L734.732 418.024L729.292 418.92L739.148 449H743.564L750.54 425.896L757.58 449H762.06L771.916 418.472ZM785.08 408.744C785.08 406.76 783.48 405.096 781.496 405.096C779.512 405.096 777.848 406.76 777.848 408.744C777.848 410.728 779.512 412.328 781.496 412.328C783.48 412.328 785.08 410.728 785.08 408.744ZM784.312 449V418.472H778.616V449H784.312ZM808.386 449.128L807.618 444.264C806.914 444.392 806.018 444.456 804.994 444.456C801.794 444.456 800.77 442.92 800.77 440.424V423.272H808.13L807.362 418.472H800.77V407.464L795.202 408.296V418.472H790.594V423.272H795.202V441.448C795.202 447.592 798.722 449.512 804.098 449.512C806.082 449.512 807.426 449.32 808.386 449.128ZM840.189 449V426.792C840.189 421.288 837.117 417.832 831.357 417.832C827.005 417.832 823.485 420.264 820.989 422.504V402.792L815.293 403.688V449H820.989V427.88C823.741 424.936 826.812 422.952 829.821 422.952C833.149 422.952 834.493 425.064 834.493 428.2V449H840.189ZM1431.56 449V441.384H1425.22V449H1431.56Z" fill="white"/>
<path d="M554.536 287.128V301H566.296V284.44C566.296 276.184 562.6 271.672 555.64 271.672C550.36 271.672 546.904 274.072 545.272 279.352C544.024 274.408 540.616 271.672 535.48 271.672C530.296 271.672 526.936 274.072 525.304 279.496V272.92H513.688V301H525.4V287.608L525.448 287.656C525.448 283.768 527.032 281.224 530.008 281.224C532.84 281.224 534.136 283.384 534.136 286.696V301H545.848V287.128C545.848 283.576 547.336 281.224 550.36 281.224C553.24 281.224 554.536 283.432 554.536 287.128ZM582.576 302.008C587.904 302.008 591.792 299.656 593.664 295.192V301H605.424V272.92H593.664V286.744C593.664 291.016 591.744 293.224 588.048 293.224C584.448 293.224 582.816 291.256 582.816 286.984V272.92H571.056V289.864C571.056 297.64 575.04 302.008 582.576 302.008ZM610.813 301H622.525V266.44H610.813V301ZM633.634 301H645.394V281.32H653.89V272.92H645.394V266.296L633.634 268.024V272.92H625.81V281.32H633.634V301ZM657.172 301H668.932V274.84H657.172V301ZM656.692 268.264C656.692 271.096 659.38 273.064 663.124 273.064C666.82 273.064 669.412 271.096 669.412 268.264C669.412 265.528 666.82 263.56 663.124 263.56C659.38 263.56 656.692 265.528 656.692 268.264ZM674.329 289.768H696.361V279.976H674.329V289.768ZM701.751 310.12H713.463V295.336C715.623 299.848 719.655 301.96 725.175 301.96C733.095 301.96 738.663 295.816 738.663 286.744C738.663 278.2 733.671 271.672 725.51 271.672C719.079 271.672 715.047 274.552 713.463 279.784V272.92H701.751V310.12ZM713.415 286.888C713.415 283.288 715.911 280.648 719.943 280.648C723.927 280.648 726.423 283.24 726.423 286.792C726.423 290.392 723.879 292.984 719.847 292.984C715.815 292.984 713.415 290.44 713.415 286.888ZM753.951 302.008C759.279 302.008 763.167 299.656 765.039 295.192V301H776.799V272.92H765.039V286.744C765.039 291.016 763.119 293.224 759.423 293.224C755.823 293.224 754.191 291.256 754.191 286.984V272.92H742.431V289.864C742.431 297.64 746.415 302.008 753.951 302.008ZM782.188 301H793.948V292.168C793.948 285.4 797.02 282.616 801.916 282.616C804.076 282.616 805.708 283.192 806.668 283.816V273.448C805.756 272.872 804.268 272.296 802.3 272.296C797.884 272.296 795.004 275.224 793.708 281.848V272.92H782.188V301ZM810.032 310.12H821.744V295.336C823.904 299.848 827.936 301.96 833.456 301.96C841.376 301.96 846.944 295.816 846.944 286.744C846.944 278.2 841.952 271.672 833.792 271.672C827.36 271.672 823.328 274.552 821.744 279.784V272.92H810.032V310.12ZM821.696 286.888C821.696 283.288 824.192 280.648 828.224 280.648C832.208 280.648 834.704 283.24 834.704 286.792C834.704 290.392 832.16 292.984 828.128 292.984C824.096 292.984 821.696 290.44 821.696 286.888ZM867.945 301.96C879.609 301.96 886.233 295.192 886.233 286.6C886.233 277.96 879.609 271.672 867.945 271.672C856.281 271.672 849.609 278.008 849.609 286.6C849.609 295.144 856.281 301.96 867.945 301.96ZM861.369 286.792C861.369 283 863.817 280.504 867.945 280.504C872.025 280.504 874.473 283 874.473 286.792C874.473 290.584 872.025 293.176 867.945 293.176C863.817 293.176 861.369 290.584 861.369 286.792ZM904.347 301.96C913.899 301.96 918.987 298.12 918.987 292.456C918.987 286.888 915.627 284.632 909.675 283.576L904.875 282.712C902.571 282.232 901.611 281.944 901.611 280.888C901.611 279.928 902.907 279.352 906.123 279.352C910.443 279.352 914.523 280.6 917.403 282.28V274.744C914.667 273.064 910.107 271.672 904.443 271.672C895.323 271.672 889.563 275.272 889.563 280.84C889.563 285.112 891.915 287.8 898.683 289.384L904.443 290.68C906.411 291.16 906.795 291.832 906.795 292.696C906.795 293.464 905.787 294.232 903.291 294.232C898.395 294.232 892.491 292.504 889.323 290.056V298.024C893.499 300.568 898.827 301.96 904.347 301.96ZM940.521 301.96C945.945 301.96 950.937 300.52 954.009 298.504V290.2C950.985 292.024 947.769 293.08 943.545 293.08C938.265 293.08 934.905 291.592 933.513 289.048H954.969V285.832C954.969 277.288 949.785 271.672 938.985 271.672C928.041 271.672 921.609 278.008 921.609 286.552C921.609 295.624 928.713 301.96 940.521 301.96ZM933.225 283.912C933.897 281.608 936.105 280.072 939.561 280.072C942.969 280.072 945.033 281.464 945.513 283.912H933.225Z" fill="url(#paint8_linear_24_91)"/>
<path d="M559.688 375H571.448V366.168C571.448 359.4 574.52 356.616 579.416 356.616C581.576 356.616 583.208 357.192 584.168 357.816V347.448C583.256 346.872 581.768 346.296 579.8 346.296C575.384 346.296 572.504 349.224 571.208 355.848V346.92H559.688V375ZM604.677 375.96C610.101 375.96 615.093 374.52 618.165 372.504V364.2C615.141 366.024 611.925 367.08 607.701 367.08C602.421 367.08 599.061 365.592 597.669 363.048H619.125V359.832C619.125 351.288 613.941 345.672 603.141 345.672C592.197 345.672 585.765 352.008 585.765 360.552C585.765 369.624 592.869 375.96 604.677 375.96ZM597.381 357.912C598.053 355.608 600.261 354.072 603.717 354.072C607.125 354.072 609.189 355.464 609.669 357.912H597.381ZM623.344 384.12H635.056V369.336C637.216 373.848 641.248 375.96 646.768 375.96C654.688 375.96 660.256 369.816 660.256 360.744C660.256 352.2 655.264 345.672 647.104 345.672C640.672 345.672 636.64 348.552 635.056 353.784V346.92H623.344V384.12ZM635.008 360.888C635.008 357.288 637.504 354.648 641.536 354.648C645.52 354.648 648.016 357.24 648.016 360.792C648.016 364.392 645.472 366.984 641.44 366.984C637.408 366.984 635.008 364.44 635.008 360.888ZM664.313 375H676.025V340.44H664.313V375ZM690.398 375.96C694.958 375.96 698.126 374.376 700.094 371.496V375H711.47V360.888C711.47 351.048 705.518 345.672 694.67 345.672C688.766 345.672 684.494 347.352 681.47 349.416V358.2C684.062 355.992 687.326 354.744 690.83 354.744C695.966 354.744 699.71 356.952 700.046 361.416C697.838 358.776 695.006 357.672 691.07 357.672C684.206 357.672 680.126 361.464 680.126 366.84C680.126 372.024 683.87 375.96 690.398 375.96ZM690.83 366.168C690.83 364.296 692.51 363 695.198 363C698.126 363 700.094 364.248 700.094 366.12C700.094 368.088 698.03 369.336 695.15 369.336C692.51 369.336 690.83 368.088 690.83 366.168ZM733.24 375.96C737.992 375.96 742.12 374.808 745.48 372.792V364.296C743.416 365.544 740.152 366.696 736.744 366.696C730.264 366.696 727.192 364.056 727.192 360.792C727.192 357.384 730.6 354.888 736.696 354.888C740.344 354.888 743.368 356.088 745.384 357.48V348.696C742.744 347.016 739 345.672 733.432 345.672C721.48 345.672 714.952 352.2 714.952 360.696C714.952 369.144 721.192 375.96 733.24 375.96ZM767.38 375.96C772.804 375.96 777.796 374.52 780.868 372.504V364.2C777.844 366.024 774.628 367.08 770.404 367.08C765.124 367.08 761.764 365.592 760.372 363.048H781.828V359.832C781.828 351.288 776.644 345.672 765.844 345.672C754.9 345.672 748.468 352.008 748.468 360.552C748.468 369.624 755.572 375.96 767.38 375.96ZM760.084 357.912C760.756 355.608 762.964 354.072 766.42 354.072C769.828 354.072 771.892 355.464 772.372 357.912H760.084ZM800.159 375.96C809.711 375.96 814.799 372.12 814.799 366.456C814.799 360.888 811.439 358.632 805.487 357.576L800.687 356.712C798.383 356.232 797.423 355.944 797.423 354.888C797.423 353.928 798.719 353.352 801.935 353.352C806.255 353.352 810.335 354.6 813.215 356.28V348.744C810.479 347.064 805.919 345.672 800.255 345.672C791.135 345.672 785.375 349.272 785.375 354.84C785.375 359.112 787.727 361.8 794.495 363.384L800.255 364.68C802.223 365.16 802.607 365.832 802.607 366.696C802.607 367.464 801.599 368.232 799.103 368.232C794.207 368.232 788.303 366.504 785.135 364.056V372.024C789.311 374.568 794.639 375.96 800.159 375.96Z" fill="url(#paint9_linear_24_91)"/>
<path d="M863.4 449H875.16V429.32H883.656V420.92H875.16V414.296L863.4 416.024V420.92H855.576V429.32H863.4V449ZM909.738 435.608V449H921.498V433.112C921.498 424.28 917.514 419.672 909.93 419.672C904.17 419.672 900.618 422.264 898.65 427.688V414.44H886.938V449H898.65V435.8C898.65 431.432 900.618 429.176 904.458 429.176C907.914 429.176 909.738 431.384 909.738 435.608ZM943.491 449.96C955.155 449.96 961.779 443.192 961.779 434.6C961.779 425.96 955.155 419.672 943.491 419.672C931.827 419.672 925.155 426.008 925.155 434.6C925.155 443.144 931.827 449.96 943.491 449.96ZM936.915 434.792C936.915 431 939.363 428.504 943.491 428.504C947.571 428.504 950.019 431 950.019 434.792C950.019 438.584 947.571 441.176 943.491 441.176C939.363 441.176 936.915 438.584 936.915 434.792ZM977.014 450.008C982.342 450.008 986.23 447.656 988.102 443.192V449H999.862V420.92H988.102V434.744C988.102 439.016 986.182 441.224 982.486 441.224C978.886 441.224 977.254 439.256 977.254 434.984V420.92H965.494V437.864C965.494 445.64 969.478 450.008 977.014 450.008ZM1019.36 449.96C1028.91 449.96 1034 446.12 1034 440.456C1034 434.888 1030.64 432.632 1024.69 431.576L1019.89 430.712C1017.59 430.232 1016.63 429.944 1016.63 428.888C1016.63 427.928 1017.92 427.352 1021.14 427.352C1025.46 427.352 1029.54 428.6 1032.42 430.28V422.744C1029.68 421.064 1025.12 419.672 1019.46 419.672C1010.34 419.672 1004.58 423.272 1004.58 428.84C1004.58 433.112 1006.93 435.8 1013.7 437.384L1019.46 438.68C1021.43 439.16 1021.81 439.832 1021.81 440.696C1021.81 441.464 1020.8 442.232 1018.31 442.232C1013.41 442.232 1007.51 440.504 1004.34 438.056V446.024C1008.51 448.568 1013.84 449.96 1019.36 449.96ZM1046.99 449.96C1051.55 449.96 1054.72 448.376 1056.69 445.496V449H1068.06V434.888C1068.06 425.048 1062.11 419.672 1051.26 419.672C1045.36 419.672 1041.09 421.352 1038.06 423.416V432.2C1040.66 429.992 1043.92 428.744 1047.42 428.744C1052.56 428.744 1056.3 430.952 1056.64 435.416C1054.43 432.776 1051.6 431.672 1047.66 431.672C1040.8 431.672 1036.72 435.464 1036.72 440.84C1036.72 446.024 1040.46 449.96 1046.99 449.96ZM1047.42 440.168C1047.42 438.296 1049.1 437 1051.79 437C1054.72 437 1056.69 438.248 1056.69 440.12C1056.69 442.088 1054.62 443.336 1051.74 443.336C1049.1 443.336 1047.42 442.088 1047.42 440.168ZM1095.74 435.608V449H1107.5V433.112C1107.5 424.28 1103.51 419.672 1095.93 419.672C1090.07 419.672 1086.52 422.312 1084.55 427.928V420.92H1072.94V449H1084.65V435.8C1084.65 431.432 1086.62 429.176 1090.46 429.176C1093.91 429.176 1095.74 431.384 1095.74 435.608ZM1124.45 449.96C1130.4 449.96 1134.53 447.464 1136.5 442.712V449H1148.26V414.44H1136.5V426.968C1134.58 422.072 1130.84 419.672 1125.22 419.672C1116.96 419.672 1111.16 426.104 1111.3 435.032C1111.3 443.576 1116.34 449.96 1124.45 449.96ZM1123.49 434.792C1123.49 431.144 1126.04 428.648 1130.02 428.648C1134.1 428.648 1136.55 431.144 1136.55 434.696C1136.55 438.344 1134 440.984 1129.97 440.984C1126.04 440.984 1123.49 438.44 1123.49 434.792ZM1167.77 449.96C1177.32 449.96 1182.41 446.12 1182.41 440.456C1182.41 434.888 1179.05 432.632 1173.1 431.576L1168.3 430.712C1165.99 430.232 1165.03 429.944 1165.03 428.888C1165.03 427.928 1166.33 427.352 1169.54 427.352C1173.86 427.352 1177.94 428.6 1180.82 430.28V422.744C1178.09 421.064 1173.53 419.672 1167.86 419.672C1158.74 419.672 1152.98 423.272 1152.98 428.84C1152.98 433.112 1155.34 435.8 1162.1 437.384L1167.86 438.68C1169.83 439.16 1170.22 439.832 1170.22 440.696C1170.22 441.464 1169.21 442.232 1166.71 442.232C1161.82 442.232 1155.91 440.504 1152.74 438.056V446.024C1156.92 448.568 1162.25 449.96 1167.77 449.96ZM1215.93 449.96C1227.59 449.96 1234.22 443.192 1234.22 434.6C1234.22 425.96 1227.59 419.672 1215.93 419.672C1204.26 419.672 1197.59 426.008 1197.59 434.6C1197.59 443.144 1204.26 449.96 1215.93 449.96ZM1209.35 434.792C1209.35 431 1211.8 428.504 1215.93 428.504C1220.01 428.504 1222.46 431 1222.46 434.792C1222.46 438.584 1220.01 441.176 1215.93 441.176C1211.8 441.176 1209.35 438.584 1209.35 434.792ZM1243.88 449H1255.6V433.208H1265.96V425.048H1255.4C1255.4 422.6 1256.84 420.92 1261.07 420.92C1263.23 420.92 1265.05 421.352 1266.49 422.168V414.632C1264.62 413.624 1261.98 412.856 1258 412.856C1248.88 412.856 1243.69 416.648 1243.69 423.896C1243.69 424.28 1243.69 424.664 1243.74 425.048H1236.2V433.208H1243.88V449ZM1304.58 449.96C1312.5 449.96 1318.12 443.816 1318.12 434.744C1318.12 426.2 1313.08 419.672 1304.92 419.672C1298.48 419.672 1294.45 422.552 1292.87 427.736V414.44H1281.16V449H1292.87V443.288C1294.98 447.8 1299.01 449.96 1304.58 449.96ZM1292.82 434.888C1292.82 431.288 1295.32 428.648 1299.35 428.648C1303.33 428.648 1305.83 431.24 1305.83 434.792C1305.83 438.392 1303.28 440.984 1299.25 440.984C1295.22 440.984 1292.82 438.44 1292.82 434.888ZM1339.16 449.96C1350.83 449.96 1357.45 443.192 1357.45 434.6C1357.45 425.96 1350.83 419.672 1339.16 419.672C1327.5 419.672 1320.83 426.008 1320.83 434.6C1320.83 443.144 1327.5 449.96 1339.16 449.96ZM1332.59 434.792C1332.59 431 1335.04 428.504 1339.16 428.504C1343.24 428.504 1345.69 431 1345.69 434.792C1345.69 438.584 1343.24 441.176 1339.16 441.176C1335.04 441.176 1332.59 438.584 1332.59 434.792ZM1366.56 449H1378.32V429.32H1386.81V420.92H1378.32V414.296L1366.56 416.024V420.92H1358.73V429.32H1366.56V449ZM1403.64 449.96C1413.2 449.96 1418.28 446.12 1418.28 440.456C1418.28 434.888 1414.92 432.632 1408.97 431.576L1404.17 430.712C1401.87 430.232 1400.91 429.944 1400.91 428.888C1400.91 427.928 1402.2 427.352 1405.42 427.352C1409.74 427.352 1413.82 428.6 1416.7 430.28V422.744C1413.96 421.064 1409.4 419.672 1403.74 419.672C1394.62 419.672 1388.86 423.272 1388.86 428.84C1388.86 433.112 1391.21 435.8 1397.98 437.384L1403.74 438.68C1405.71 439.16 1406.09 439.832 1406.09 440.696C1406.09 441.464 1405.08 442.232 1402.59 442.232C1397.69 442.232 1391.79 440.504 1388.62 438.056V446.024C1392.8 448.568 1398.12 449.96 1403.64 449.96Z" fill="url(#paint10_linear_24_91)"/>
<defs>
<filter id="filter0_d_24_91" x="70" y="98" width="291" height="378" filterUnits="userSpaceOnUse" color-interpolation-filters="sRGB">
<feFlood flood-opacity="0" result="BackgroundImageFix"/>
<feColorMatrix in="SourceAlpha" type="matrix" values="0 0 0 0 0 0 0 0 0 0 0 0 0 0 0 0 0 0 127 0" result="hardAlpha"/>
<feOffset dx="4" dy="4"/>
<feGaussianBlur stdDeviation="5"/>
<feComposite in2="hardAlpha" operator="out"/>
<feColorMatrix type="matrix" values="0 0 0 0 0 0 0 0 0 0 0 0 0 0 0 0 0 0 0.15 0"/>
<feBlend mode="normal" in2="BackgroundImageFix" result="effect1_dropShadow_24_91"/>
<feBlend mode="normal" in="SourceGraphic" in2="effect1_dropShadow_24_91" result="shape"/>
</filter>
<linearGradient id="paint0_linear_24_91" x1="0" y1="0" x2="1512" y2="567" gradientUnits="userSpaceOnUse">
<stop stop-color="#614385"/>
<stop offset="1" stop-color="#516395"/>
</linearGradient>
<linearGradient id="paint1_linear_24_91" x1="76" y1="104" x2="347.822" y2="461.375" gradientUnits="userSpaceOnUse">
<stop stop-color="#4399E8"/>
<stop offset="1" stop-color="#164B9E"/>
</linearGradient>
<linearGradient id="paint2_linear_24_91" x1="76" y1="104" x2="347.822" y2="461.375" gradientUnits="userSpaceOnUse">
<stop stop-color="#4399E8"/>
<stop offset="1" stop-color="#164B9E"/>
</linearGradient>
<linearGradient id="paint3_linear_24_91" x1="76" y1="104" x2="347.822" y2="461.375" gradientUnits="userSpaceOnUse">
<stop stop-color="#4399E8"/>
<stop offset="1" stop-color="#164B9E"/>
</linearGradient>
<linearGradient id="paint4_linear_24_91" x1="76" y1="104" x2="347.822" y2="461.375" gradientUnits="userSpaceOnUse">
<stop stop-color="#4399E8"/>
<stop offset="1" stop-color="#164B9E"/>
</linearGradient>
<linearGradient id="paint5_linear_24_91" x1="76" y1="104" x2="347.822" y2="461.375" gradientUnits="userSpaceOnUse">
<stop stop-color="#4399E8"/>
<stop offset="1" stop-color="#164B9E"/>
</linearGradient>
<linearGradient id="paint6_linear_24_91" x1="76" y1="104" x2="347.822" y2="461.375" gradientUnits="userSpaceOnUse">
<stop stop-color="#4399E8"/>
<stop offset="1" stop-color="#164B9E"/>
</linearGradient>
<linearGradient id="paint7_linear_24_91" x1="379" y1="240" x2="1307.61" y2="240" gradientUnits="userSpaceOnUse">
<stop stop-color="#FAFF00"/>
<stop offset="1" stop-color="#FF9900"/>
</linearGradient>
<linearGradient id="paint8_linear_24_91" x1="511" y1="283" x2="957" y2="283" gradientUnits="userSpaceOnUse">
<stop stop-color="#FF00B8"/>
<stop offset="1" stop-color="#FFA800"/>
</linearGradient>
<linearGradient id="paint9_linear_24_91" x1="557" y1="357" x2="817" y2="357" gradientUnits="userSpaceOnUse">
<stop stop-color="#009245"/>
<stop offset="1" stop-color="#FCEE21"/>
</linearGradient>
<linearGradient id="paint10_linear_24_91" x1="855" y1="431" x2="1420" y2="431" gradientUnits="userSpaceOnUse">
<stop stop-color="#00D2FF"/>
<stop offset="1" stop-color="#3A7BD5"/>
</linearGradient>
</defs>
</svg>
