<svg width="1512" height="567" viewBox="0 0 1512 567" fill="none" xmlns="http://www.w3.org/2000/svg">
<rect width="1512" height="567" fill="url(#paint0_linear_24_91)"/>
<g filter="url(#filter0_d_24_91)">
<path d="M132 295.693C132 285.758 140.035 277.704 149.947 277.704H201.993C211.905 277.704 219.94 285.758 219.94 295.693V445.01C219.94 454.946 211.905 463 201.993 463H149.947C140.035 463 132 454.946 132 445.01V295.693Z" fill="url(#paint1_linear_24_91)"/>
<path d="M315.06 209.342C315.06 199.406 323.095 191.352 333.007 191.352H385.053C394.965 191.352 403 199.406 403 209.342V445.01C403 454.946 394.965 463 385.053 463H333.007C323.095 463 315.06 454.946 315.06 445.01V209.342Z" fill="url(#paint2_linear_24_91)"/>
<path d="M385.053 374.849C394.965 374.849 403 382.904 403 392.839V445.01C403 454.946 394.965 463 385.053 463H149.947C140.035 463 132 454.946 132 445.01L132 392.839C132 382.904 140.035 374.849 149.947 374.849H385.053Z" fill="url(#paint3_linear_24_91)"/>
<path d="M385.053 191.352C394.965 191.352 403 199.406 403 209.342V261.513C403 271.448 394.965 279.503 385.053 279.503H236.093C226.181 279.503 218.146 271.448 218.146 261.513V209.342C218.146 199.406 226.181 191.352 236.093 191.352H385.053Z" fill="url(#paint4_linear_24_91)"/>
<path d="M201.993 105C211.905 105 219.94 113.054 219.94 122.99V173.362C219.94 183.297 211.905 191.352 201.993 191.352H149.947C140.035 191.352 132 183.297 132 173.362L132 122.99C132 113.054 140.035 105 149.947 105L201.993 105Z" fill="url(#paint5_linear_24_91)"/>
<path d="M254.937 279.503H297.113C307.024 279.503 315.06 287.557 315.06 297.492V356.859C315.06 366.795 307.024 374.849 297.113 374.849H237.887C227.976 374.849 219.94 366.795 219.94 356.859V314.583L209.172 325.377V383.844H325.828V266.91H267.5L254.937 279.503Z" fill="url(#paint6_linear_24_91)"/>
</g>
<path d="M441.336 203H483.864C505.272 203 514.488 194.264 514.488 182.648C514.488 174.296 509.976 168.056 500.28 165.944C507.96 164.12 511.896 159.416 511.896 152.792C511.896 143.192 502.968 135.8 485.208 135.8H441.336V203ZM464.856 187.352V174.968H479.448C485.784 174.968 488.664 176.888 488.664 180.728C488.664 185.144 485.592 187.352 478.776 187.352H464.856ZM464.856 162.584V151.448H478.488C484.056 151.448 486.36 153.368 486.36 157.304C486.36 160.664 483.864 162.584 478.68 162.584H464.856ZM522.876 203H546.396V150.68H522.876V203ZM521.916 137.528C521.916 143.192 527.292 147.128 534.78 147.128C542.172 147.128 547.356 143.192 547.356 137.528C547.356 132.056 542.172 128.12 534.78 128.12C527.292 128.12 521.916 132.056 521.916 137.528ZM568.613 203H592.133V163.64H609.125V146.84H592.133V133.592L568.613 137.048V146.84H552.965V163.64H568.613V203ZM627.113 203H650.633V163.64H667.625V146.84H650.633V133.592L627.113 137.048V146.84H611.465V163.64H627.113V203ZM680.525 221.24H707.021L744.653 146.84H719.789L706.253 177.08L693.581 146.84H668.524L693.101 197.912L680.525 221.24Z" fill="white"/>
<line x1="440" y1="236" x2="1370" y2="236" stroke="url(#paint7_linear_24_91)" stroke-width="10" stroke-linecap="round"/>
<path d="M474.296 257.84H467.64L455.288 278.96L442.616 257.392L436.6 258.672L452.216 284.464V302H458.232V284.464L474.296 257.84ZM499.101 286.768C499.101 276.72 493.085 270.832 484.893 270.832C476.765 270.832 470.877 276.72 470.877 286.768C470.877 296.816 476.765 302.64 484.893 302.64C493.085 302.64 499.101 296.816 499.101 286.768ZM493.341 286.768C493.341 293.168 490.525 297.904 484.893 297.904C479.517 297.904 476.637 293.04 476.637 286.768C476.637 280.368 479.389 275.632 484.893 275.632C490.397 275.632 493.341 280.496 493.341 286.768ZM531.123 302V271.472H525.427V292.592C522.675 295.536 519.603 297.52 516.595 297.52C513.267 297.52 511.923 295.408 511.923 292.272V271.472H506.227V293.68C506.227 299.184 509.235 302.64 515.059 302.64C519.347 302.64 522.995 300.272 525.875 297.584L526.579 302H531.123ZM557.193 276.272L556.297 270.832C551.305 271.088 547.785 274.224 545.609 277.68L544.649 271.472H540.105V302H545.801V283.952C547.849 279.92 552.137 276.528 557.193 276.272ZM1052.58 302V255.792L1046.88 256.688V272.432C1044.96 271.664 1042.21 271.088 1039.2 271.088C1031.78 271.088 1025.38 276.464 1025.38 287.6C1025.38 297.84 1030.82 302.64 1037.41 302.64C1041.89 302.64 1045.03 300.336 1047.33 297.584L1048.03 302H1052.58ZM1046.88 292.208C1044.45 295.472 1041.76 297.584 1038.24 297.584C1034.15 297.584 1031.14 294.064 1031.14 287.344C1031.14 279.792 1034.59 275.888 1039.39 275.888C1042.66 275.888 1044.51 276.4 1046.88 277.616V292.208ZM1068.45 261.744C1068.45 259.76 1066.85 258.096 1064.87 258.096C1062.89 258.096 1061.22 259.76 1061.22 261.744C1061.22 263.728 1062.89 265.328 1064.87 265.328C1066.85 265.328 1068.45 263.728 1068.45 261.744ZM1067.69 302V271.472H1061.99V302H1067.69ZM1098.42 293.488C1098.42 287.664 1095.03 285.488 1087.47 283.568C1082.67 282.352 1081.14 281.2 1081.14 279.152C1081.14 276.976 1082.93 275.632 1086.39 275.632C1089.59 275.632 1092.98 276.72 1095.67 278.256L1096.56 272.88C1093.68 271.6 1090.29 270.832 1086.51 270.832C1079.86 270.832 1075.76 274.416 1075.76 279.28C1075.76 284.72 1078.64 286.896 1085.81 288.688C1091.31 290.032 1093.04 291.056 1093.04 293.872C1093.04 296.432 1090.74 297.904 1086.83 297.904C1082.67 297.904 1078.96 296.368 1076.08 294.384L1075.25 299.76C1077.87 301.232 1082.35 302.64 1086.39 302.64C1094.26 302.64 1098.42 299.056 1098.42 293.488ZM1128.33 299.376L1127.5 294.256C1124.36 296.944 1121.67 297.648 1118.6 297.648C1113.23 297.648 1109.45 294.128 1109.45 286.704C1109.45 279.6 1112.97 275.824 1117.96 275.824C1121.48 275.824 1124.36 276.912 1127.18 279.216L1128.01 273.648C1125.71 271.984 1122.51 270.832 1118.03 270.832C1110.09 270.832 1103.69 276.336 1103.69 286.768C1103.69 296.944 1109.71 302.64 1117.9 302.64C1121.99 302.64 1125.19 301.744 1128.33 299.376ZM1161.35 286.768C1161.35 276.72 1155.34 270.832 1147.14 270.832C1139.02 270.832 1133.13 276.72 1133.13 286.768C1133.13 296.816 1139.02 302.64 1147.14 302.64C1155.34 302.64 1161.35 296.816 1161.35 286.768ZM1155.59 286.768C1155.59 293.168 1152.78 297.904 1147.14 297.904C1141.77 297.904 1138.89 293.04 1138.89 286.768C1138.89 280.368 1141.64 275.632 1147.14 275.632C1152.65 275.632 1155.59 280.496 1155.59 286.768ZM1185.69 276.272L1184.8 270.832C1179.81 271.088 1176.29 274.224 1174.11 277.68L1173.15 271.472H1168.61V302H1174.3V283.952C1176.35 279.92 1180.64 276.528 1185.69 276.272ZM1215.89 302V255.792L1210.19 256.688V272.432C1208.27 271.664 1205.52 271.088 1202.51 271.088C1195.09 271.088 1188.69 276.464 1188.69 287.6C1188.69 297.84 1194.13 302.64 1200.72 302.64C1205.2 302.64 1208.34 300.336 1210.64 297.584L1211.35 302H1215.89ZM1210.19 292.208C1207.76 295.472 1205.07 297.584 1201.55 297.584C1197.46 297.584 1194.45 294.064 1194.45 287.344C1194.45 279.792 1197.91 275.888 1202.71 275.888C1205.97 275.888 1207.83 276.4 1210.19 277.616V292.208ZM1265.8 285.872C1265.8 275.696 1260.36 270.832 1253.77 270.832C1249.61 270.832 1246.66 272.944 1244.61 275.056V255.792L1238.92 256.688V300.464C1242.95 301.68 1246.21 302.384 1250.82 302.384C1259.65 302.384 1265.8 297.008 1265.8 285.872ZM1260.04 286.128C1260.04 294 1256.71 297.52 1250.76 297.52C1247.94 297.52 1246.53 297.2 1244.61 296.496V280.88C1246.92 278 1249.73 275.888 1252.93 275.888C1257.03 275.888 1260.04 279.472 1260.04 286.128ZM1299.54 286.768C1299.54 276.72 1293.52 270.832 1285.33 270.832C1277.2 270.832 1271.31 276.72 1271.31 286.768C1271.31 296.816 1277.2 302.64 1285.33 302.64C1293.52 302.64 1299.54 296.816 1299.54 286.768ZM1293.78 286.768C1293.78 293.168 1290.96 297.904 1285.33 297.904C1279.95 297.904 1277.07 293.04 1277.07 286.768C1277.07 280.368 1279.83 275.632 1285.33 275.632C1290.83 275.632 1293.78 280.496 1293.78 286.768ZM1321.45 302.128L1320.68 297.264C1319.98 297.392 1319.08 297.456 1318.06 297.456C1314.86 297.456 1313.83 295.92 1313.83 293.424V276.272H1321.19L1320.42 271.472H1313.83V260.464L1308.26 261.296V271.472H1303.66V276.272H1308.26V294.448C1308.26 300.592 1311.78 302.512 1317.16 302.512C1319.14 302.512 1320.49 302.32 1321.45 302.128ZM1335.4 294.384H1328.8L1325.6 309.744L1328.74 310.512L1335.4 294.384ZM479.416 345.472H473.848L467.32 367.616L460.536 345.472H455.736L448.952 367.616L442.232 345.024L436.792 345.92L446.648 376H451.064L458.04 352.896L465.08 376H469.56L479.416 345.472ZM510.564 376V353.792C510.564 348.288 507.492 344.832 501.732 344.832C497.38 344.832 493.86 347.264 491.364 349.504V329.792L485.668 330.688V376H491.364V354.88C494.116 351.936 497.188 349.952 500.196 349.952C503.524 349.952 504.868 352.064 504.868 355.2V376H510.564ZM526.33 335.744C526.33 333.76 524.73 332.096 522.746 332.096C520.762 332.096 519.098 333.76 519.098 335.744C519.098 337.728 520.762 339.328 522.746 339.328C524.73 339.328 526.33 337.728 526.33 335.744ZM525.562 376V345.472H519.866V376H525.562ZM557.892 373.376L557.06 368.256C553.924 370.944 551.236 371.648 548.164 371.648C542.788 371.648 539.012 368.128 539.012 360.704C539.012 353.6 542.532 349.824 547.524 349.824C551.044 349.824 553.924 350.912 556.74 353.216L557.572 347.648C555.268 345.984 552.068 344.832 547.588 344.832C539.652 344.832 533.252 350.336 533.252 360.768C533.252 370.944 539.268 376.64 547.46 376.64C551.556 376.64 554.756 375.744 557.892 373.376ZM589.876 376V353.792C589.876 348.288 586.804 344.832 581.044 344.832C576.692 344.832 573.172 347.264 570.676 349.504V329.792L564.98 330.688V376H570.676V354.88C573.428 351.936 576.5 349.952 579.508 349.952C582.836 349.952 584.18 352.064 584.18 355.2V376H589.876ZM937.371 376V353.792C937.371 348.288 934.555 344.832 928.731 344.832C924.443 344.832 920.731 347.264 917.979 349.888C916.827 346.752 914.395 344.832 909.915 344.832C905.627 344.832 902.171 347.264 899.291 349.888L898.587 345.472H894.043V376H899.739V354.88C902.491 351.936 905.371 349.952 908.378 349.952C911.707 349.952 912.859 352.064 912.859 355.2V376H918.555V354.88C921.307 351.936 924.187 349.952 927.194 349.952C930.523 349.952 931.675 352.064 931.675 355.2V376H937.371ZM969.334 376V354.624C969.334 347.84 965.75 344.832 958.326 344.832C953.59 344.832 950.134 345.92 946.486 347.392L947.254 352.32C950.582 350.848 954.102 349.696 957.814 349.696C961.334 349.696 963.638 351.04 963.638 354.88V356.16C950.902 357.504 944.374 360.512 944.374 368.128C944.374 373.312 947.83 376.64 953.334 376.64C958.326 376.64 961.654 374.4 964.086 371.904L964.726 376H969.334ZM963.638 367.616C961.078 370.24 957.878 371.904 954.55 371.904C951.67 371.904 950.006 370.304 950.006 367.808C950.006 364.672 952.374 361.6 963.638 360.512V367.616ZM1003.06 376V353.792C1003.06 348.288 999.992 344.832 994.232 344.832C989.88 344.832 986.296 347.264 983.416 349.888L982.712 345.472H978.168V376H983.864V354.88C986.616 351.936 989.688 349.952 992.696 349.952C996.024 349.952 997.368 352.064 997.368 355.2V376H1003.06ZM1036.32 345.472H1030.49L1022.36 369.344L1014.04 345.024L1008.41 345.92L1019.55 376.128L1018.4 379.264C1017.5 381.696 1015.9 382.848 1013.53 382.848C1012.44 382.848 1011.29 382.656 1010.33 382.4L1011.1 387.392C1011.68 387.52 1012.32 387.648 1013.08 387.648C1018.14 387.648 1021.4 385.792 1024.03 378.688L1036.32 345.472ZM1083.24 359.872C1083.24 349.696 1077.8 344.832 1071.2 344.832C1067.04 344.832 1064.1 346.944 1062.05 349.056V329.792L1056.36 330.688V374.464C1060.39 375.68 1063.65 376.384 1068.26 376.384C1077.09 376.384 1083.24 371.008 1083.24 359.872ZM1077.48 360.128C1077.48 368 1074.15 371.52 1068.2 371.52C1065.38 371.52 1063.97 371.2 1062.05 370.496V354.88C1064.36 352 1067.17 349.888 1070.37 349.888C1074.47 349.888 1077.48 353.472 1077.48 360.128ZM1116.98 360.768C1116.98 350.72 1110.96 344.832 1102.77 344.832C1094.64 344.832 1088.75 350.72 1088.75 360.768C1088.75 370.816 1094.64 376.64 1102.77 376.64C1110.96 376.64 1116.98 370.816 1116.98 360.768ZM1111.22 360.768C1111.22 367.168 1108.4 371.904 1102.77 371.904C1097.39 371.904 1094.51 367.04 1094.51 360.768C1094.51 354.368 1097.26 349.632 1102.77 349.632C1108.27 349.632 1111.22 354.496 1111.22 360.768ZM1138.89 376.128L1138.12 371.264C1137.41 371.392 1136.52 371.456 1135.49 371.456C1132.29 371.456 1131.27 369.92 1131.27 367.424V350.272H1138.63L1137.86 345.472H1131.27V334.464L1125.7 335.296V345.472H1121.09V350.272H1125.7V368.448C1125.7 374.592 1129.22 376.512 1134.6 376.512C1136.58 376.512 1137.93 376.32 1138.89 376.128ZM1167.1 367.488C1167.1 361.664 1163.71 359.488 1156.16 357.568C1151.36 356.352 1149.82 355.2 1149.82 353.152C1149.82 350.976 1151.62 349.632 1155.07 349.632C1158.27 349.632 1161.66 350.72 1164.35 352.256L1165.25 346.88C1162.37 345.6 1158.98 344.832 1155.2 344.832C1148.54 344.832 1144.45 348.416 1144.45 353.28C1144.45 358.72 1147.33 360.896 1154.5 362.688C1160 364.032 1161.73 365.056 1161.73 367.872C1161.73 370.432 1159.42 371.904 1155.52 371.904C1151.36 371.904 1147.65 370.368 1144.77 368.384L1143.94 373.76C1146.56 375.232 1151.04 376.64 1155.07 376.64C1162.94 376.64 1167.1 373.056 1167.1 367.488ZM1209.48 367.488C1209.48 361.664 1206.09 359.488 1198.54 357.568C1193.74 356.352 1192.2 355.2 1192.2 353.152C1192.2 350.976 1193.99 349.632 1197.45 349.632C1200.65 349.632 1204.04 350.72 1206.73 352.256L1207.62 346.88C1204.74 345.6 1201.35 344.832 1197.58 344.832C1190.92 344.832 1186.82 348.416 1186.82 353.28C1186.82 358.72 1189.7 360.896 1196.87 362.688C1202.38 364.032 1204.1 365.056 1204.1 367.872C1204.1 370.432 1201.8 371.904 1197.9 371.904C1193.74 371.904 1190.02 370.368 1187.14 368.384L1186.31 373.76C1188.94 375.232 1193.42 376.64 1197.45 376.64C1205.32 376.64 1209.48 373.056 1209.48 367.488ZM1242.98 360.768C1242.98 350.72 1236.96 344.832 1228.77 344.832C1220.64 344.832 1214.75 350.72 1214.75 360.768C1214.75 370.816 1220.64 376.64 1228.77 376.64C1236.96 376.64 1242.98 370.816 1242.98 360.768ZM1237.22 360.768C1237.22 367.168 1234.4 371.904 1228.77 371.904C1223.39 371.904 1220.51 367.04 1220.51 360.768C1220.51 354.368 1223.26 349.632 1228.77 349.632C1234.27 349.632 1237.22 354.496 1237.22 360.768ZM1289.25 345.472H1283.43L1275.3 369.344L1266.98 345.024L1261.35 345.92L1272.48 376.128L1271.33 379.264C1270.44 381.696 1268.84 382.848 1266.47 382.848C1265.38 382.848 1264.23 382.656 1263.27 382.4L1264.04 387.392C1264.61 387.52 1265.25 387.648 1266.02 387.648C1271.08 387.648 1274.34 385.792 1276.96 378.688L1289.25 345.472ZM1320.73 360.768C1320.73 350.72 1314.71 344.832 1306.52 344.832C1298.39 344.832 1292.5 350.72 1292.5 360.768C1292.5 370.816 1298.39 376.64 1306.52 376.64C1314.71 376.64 1320.73 370.816 1320.73 360.768ZM1314.97 360.768C1314.97 367.168 1312.15 371.904 1306.52 371.904C1301.14 371.904 1298.26 367.04 1298.26 360.768C1298.26 354.368 1301.01 349.632 1306.52 349.632C1312.02 349.632 1314.97 354.496 1314.97 360.768ZM1352.75 376V345.472H1347.05V366.592C1344.3 369.536 1341.23 371.52 1338.22 371.52C1334.89 371.52 1333.55 369.408 1333.55 366.272V345.472H1327.85V367.68C1327.85 373.184 1330.86 376.64 1336.68 376.64C1340.97 376.64 1344.62 374.272 1347.5 371.584L1348.2 376H1352.75ZM464.952 450V403.792L459.256 404.688V420.432C457.336 419.664 454.584 419.088 451.576 419.088C444.152 419.088 437.752 424.464 437.752 435.6C437.752 445.84 443.192 450.64 449.784 450.64C454.264 450.64 457.4 448.336 459.704 445.584L460.408 450H464.952ZM459.256 440.208C456.824 443.472 454.136 445.584 450.616 445.584C446.52 445.584 443.512 442.064 443.512 435.344C443.512 427.792 446.968 423.888 451.768 423.888C455.032 423.888 456.888 424.4 459.256 425.616V440.208ZM500.414 434.768C500.414 424.72 494.398 418.832 486.206 418.832C478.078 418.832 472.19 424.72 472.19 434.768C472.19 444.816 478.078 450.64 486.206 450.64C494.398 450.64 500.414 444.816 500.414 434.768ZM494.654 434.768C494.654 441.168 491.838 445.904 486.206 445.904C480.83 445.904 477.95 441.04 477.95 434.768C477.95 428.368 480.702 423.632 486.206 423.632C491.71 423.632 494.654 428.496 494.654 434.768ZM532.564 450V427.792C532.564 422.288 529.492 418.832 523.732 418.832C519.38 418.832 515.796 421.264 512.916 423.888L512.212 419.472H507.668V450H513.364V428.88C516.116 425.936 519.188 423.952 522.196 423.952C525.524 423.952 526.868 426.064 526.868 429.2V450H532.564ZM548.714 405.84H542.122L540.266 419.984L543.466 420.752L548.714 405.84ZM570.574 450.128L569.806 445.264C569.102 445.392 568.206 445.456 567.182 445.456C563.982 445.456 562.958 443.92 562.958 441.424V424.272H570.318L569.55 419.472H562.958V408.464L557.39 409.296V419.472H552.782V424.272H557.39V442.448C557.39 448.592 560.91 450.512 566.286 450.512C568.27 450.512 569.614 450.32 570.574 450.128ZM616.247 434.128C616.247 425.68 612.151 418.832 603.255 418.832C595.575 418.832 589.815 424.848 589.815 434.64C589.815 445.84 596.023 450.64 603.958 450.64C609.015 450.64 612.919 449.104 616.183 446.544L615.351 441.424C612.023 444.048 608.823 445.776 604.407 445.776C599.095 445.776 595.703 442.448 595.51 435.344H616.247C616.247 434.96 616.247 434.448 616.247 434.128ZM610.487 431.056H595.767C596.663 425.808 599.671 423.312 603.191 423.312C607.607 423.312 609.783 426.128 610.487 431.056ZM648.376 450V427.792C648.376 422.288 645.304 418.832 639.544 418.832C635.192 418.832 631.608 421.264 628.728 423.888L628.024 419.472H623.48V450H629.176V428.88C631.928 425.936 635 423.952 638.008 423.952C641.336 423.952 642.68 426.064 642.68 429.2V450H648.376ZM682.702 450V403.792L677.006 404.688V420.432C675.086 419.664 672.334 419.088 669.326 419.088C661.902 419.088 655.502 424.464 655.502 435.6C655.502 445.84 660.942 450.64 667.534 450.64C672.014 450.64 675.15 448.336 677.454 445.584L678.158 450H682.702ZM677.006 440.208C674.574 443.472 671.886 445.584 668.366 445.584C664.27 445.584 661.262 442.064 661.262 435.344C661.262 427.792 664.718 423.888 669.518 423.888C672.782 423.888 674.638 424.4 677.006 425.616V440.208ZM730.498 450V419.472H724.802V440.592C722.05 443.536 718.978 445.52 715.97 445.52C712.642 445.52 711.298 443.408 711.298 440.272V419.472H705.602V441.68C705.602 447.184 708.61 450.64 714.434 450.64C718.722 450.64 722.37 448.272 725.25 445.584L725.954 450H730.498ZM766.68 433.872C766.68 423.696 761.24 418.832 754.648 418.832C750.168 418.832 747.032 421.2 744.728 423.888L744.024 419.472H739.48V461.904L745.176 461.072V449.04C747.096 449.808 749.848 450.384 752.856 450.384C760.28 450.384 766.68 445.008 766.68 433.872ZM760.92 434.128C760.92 441.68 757.4 445.584 752.6 445.584C749.336 445.584 747.48 445.072 745.176 443.92V429.264C747.608 426 750.296 423.888 753.752 423.888C757.912 423.888 760.92 427.472 760.92 434.128ZM827.916 419.472H822.348L815.82 441.616L809.036 419.472H804.236L797.452 441.616L790.732 419.024L785.292 419.92L795.148 450H799.564L806.54 426.896L813.58 450H818.06L827.916 419.472ZM841.08 409.744C841.08 407.76 839.48 406.096 837.496 406.096C835.512 406.096 833.848 407.76 833.848 409.744C833.848 411.728 835.512 413.328 837.496 413.328C839.48 413.328 841.08 411.728 841.08 409.744ZM840.312 450V419.472H834.616V450H840.312ZM864.386 450.128L863.618 445.264C862.914 445.392 862.018 445.456 860.994 445.456C857.794 445.456 856.77 443.92 856.77 441.424V424.272H864.13L863.362 419.472H856.77V408.464L851.202 409.296V419.472H846.594V424.272H851.202V442.448C851.202 448.592 854.722 450.512 860.098 450.512C862.082 450.512 863.426 450.32 864.386 450.128ZM896.189 450V427.792C896.189 422.288 893.117 418.832 887.357 418.832C883.005 418.832 879.485 421.264 876.989 423.504V403.792L871.293 404.688V450H876.989V428.88C879.741 425.936 882.812 423.952 885.821 423.952C889.149 423.952 890.493 426.064 890.493 429.2V450H896.189ZM1487.56 450V442.384H1481.22V450H1487.56Z" fill="white"/>
<path d="M610.536 288.128V302H622.296V285.44C622.296 277.184 618.6 272.672 611.64 272.672C606.36 272.672 602.904 275.072 601.272 280.352C600.024 275.408 596.616 272.672 591.48 272.672C586.296 272.672 582.936 275.072 581.304 280.496V273.92H569.688V302H581.4V288.608L581.448 288.656C581.448 284.768 583.032 282.224 586.008 282.224C588.84 282.224 590.136 284.384 590.136 287.696V302H601.848V288.128C601.848 284.576 603.336 282.224 606.36 282.224C609.24 282.224 610.536 284.432 610.536 288.128ZM638.576 303.008C643.904 303.008 647.792 300.656 649.664 296.192V302H661.424V273.92H649.664V287.744C649.664 292.016 647.744 294.224 644.048 294.224C640.448 294.224 638.816 292.256 638.816 287.984V273.92H627.056V290.864C627.056 298.64 631.04 303.008 638.576 303.008ZM666.813 302H678.525V267.44H666.813V302ZM689.634 302H701.394V282.32H709.89V273.92H701.394V267.296L689.634 269.024V273.92H681.81V282.32H689.634V302ZM713.172 302H724.932V275.84H713.172V302ZM712.692 269.264C712.692 272.096 715.38 274.064 719.124 274.064C722.82 274.064 725.412 272.096 725.412 269.264C725.412 266.528 722.82 264.56 719.124 264.56C715.38 264.56 712.692 266.528 712.692 269.264ZM730.329 290.768H752.361V280.976H730.329V290.768ZM757.751 311.12H769.463V296.336C771.623 300.848 775.655 302.96 781.175 302.96C789.095 302.96 794.663 296.816 794.663 287.744C794.663 279.2 789.671 272.672 781.51 272.672C775.079 272.672 771.047 275.552 769.463 280.784V273.92H757.751V311.12ZM769.415 287.888C769.415 284.288 771.911 281.648 775.943 281.648C779.927 281.648 782.423 284.24 782.423 287.792C782.423 291.392 779.879 293.984 775.847 293.984C771.815 293.984 769.415 291.44 769.415 287.888ZM809.951 303.008C815.279 303.008 819.167 300.656 821.039 296.192V302H832.799V273.92H821.039V287.744C821.039 292.016 819.119 294.224 815.423 294.224C811.823 294.224 810.191 292.256 810.191 287.984V273.92H798.431V290.864C798.431 298.64 802.415 303.008 809.951 303.008ZM838.188 302H849.948V293.168C849.948 286.4 853.02 283.616 857.916 283.616C860.076 283.616 861.708 284.192 862.668 284.816V274.448C861.756 273.872 860.268 273.296 858.3 273.296C853.884 273.296 851.004 276.224 849.708 282.848V273.92H838.188V302ZM866.032 311.12H877.744V296.336C879.904 300.848 883.936 302.96 889.456 302.96C897.376 302.96 902.944 296.816 902.944 287.744C902.944 279.2 897.952 272.672 889.792 272.672C883.36 272.672 879.328 275.552 877.744 280.784V273.92H866.032V311.12ZM877.696 287.888C877.696 284.288 880.192 281.648 884.224 281.648C888.208 281.648 890.704 284.24 890.704 287.792C890.704 291.392 888.16 293.984 884.128 293.984C880.096 293.984 877.696 291.44 877.696 287.888ZM923.945 302.96C935.609 302.96 942.233 296.192 942.233 287.6C942.233 278.96 935.609 272.672 923.945 272.672C912.281 272.672 905.609 279.008 905.609 287.6C905.609 296.144 912.281 302.96 923.945 302.96ZM917.369 287.792C917.369 284 919.817 281.504 923.945 281.504C928.025 281.504 930.473 284 930.473 287.792C930.473 291.584 928.025 294.176 923.945 294.176C919.817 294.176 917.369 291.584 917.369 287.792ZM960.347 302.96C969.899 302.96 974.987 299.12 974.987 293.456C974.987 287.888 971.627 285.632 965.675 284.576L960.875 283.712C958.571 283.232 957.611 282.944 957.611 281.888C957.611 280.928 958.907 280.352 962.123 280.352C966.443 280.352 970.523 281.6 973.403 283.28V275.744C970.667 274.064 966.107 272.672 960.443 272.672C951.323 272.672 945.563 276.272 945.563 281.84C945.563 286.112 947.915 288.8 954.683 290.384L960.443 291.68C962.411 292.16 962.795 292.832 962.795 293.696C962.795 294.464 961.787 295.232 959.291 295.232C954.395 295.232 948.491 293.504 945.323 291.056V299.024C949.499 301.568 954.827 302.96 960.347 302.96ZM996.521 302.96C1001.94 302.96 1006.94 301.52 1010.01 299.504V291.2C1006.98 293.024 1003.77 294.08 999.545 294.08C994.265 294.08 990.905 292.592 989.513 290.048H1010.97V286.832C1010.97 278.288 1005.78 272.672 994.985 272.672C984.041 272.672 977.609 279.008 977.609 287.552C977.609 296.624 984.713 302.96 996.521 302.96ZM989.225 284.912C989.897 282.608 992.105 281.072 995.561 281.072C998.969 281.072 1001.03 282.464 1001.51 284.912H989.225Z" fill="url(#paint8_linear_24_91)"/>
<path d="M615.688 376H627.448V367.168C627.448 360.4 630.52 357.616 635.416 357.616C637.576 357.616 639.208 358.192 640.168 358.816V348.448C639.256 347.872 637.768 347.296 635.8 347.296C631.384 347.296 628.504 350.224 627.208 356.848V347.92H615.688V376ZM660.677 376.96C666.101 376.96 671.093 375.52 674.165 373.504V365.2C671.141 367.024 667.925 368.08 663.701 368.08C658.421 368.08 655.061 366.592 653.669 364.048H675.125V360.832C675.125 352.288 669.941 346.672 659.141 346.672C648.197 346.672 641.765 353.008 641.765 361.552C641.765 370.624 648.869 376.96 660.677 376.96ZM653.381 358.912C654.053 356.608 656.261 355.072 659.717 355.072C663.125 355.072 665.189 356.464 665.669 358.912H653.381ZM679.344 385.12H691.056V370.336C693.216 374.848 697.248 376.96 702.768 376.96C710.688 376.96 716.256 370.816 716.256 361.744C716.256 353.2 711.264 346.672 703.104 346.672C696.672 346.672 692.64 349.552 691.056 354.784V347.92H679.344V385.12ZM691.008 361.888C691.008 358.288 693.504 355.648 697.536 355.648C701.52 355.648 704.016 358.24 704.016 361.792C704.016 365.392 701.472 367.984 697.44 367.984C693.408 367.984 691.008 365.44 691.008 361.888ZM720.313 376H732.025V341.44H720.313V376ZM746.398 376.96C750.958 376.96 754.126 375.376 756.094 372.496V376H767.47V361.888C767.47 352.048 761.518 346.672 750.67 346.672C744.766 346.672 740.494 348.352 737.47 350.416V359.2C740.062 356.992 743.326 355.744 746.83 355.744C751.966 355.744 755.71 357.952 756.046 362.416C753.838 359.776 751.006 358.672 747.07 358.672C740.206 358.672 736.126 362.464 736.126 367.84C736.126 373.024 739.87 376.96 746.398 376.96ZM746.83 367.168C746.83 365.296 748.51 364 751.198 364C754.126 364 756.094 365.248 756.094 367.12C756.094 369.088 754.03 370.336 751.15 370.336C748.51 370.336 746.83 369.088 746.83 367.168ZM789.24 376.96C793.992 376.96 798.12 375.808 801.48 373.792V365.296C799.416 366.544 796.152 367.696 792.744 367.696C786.264 367.696 783.192 365.056 783.192 361.792C783.192 358.384 786.6 355.888 792.696 355.888C796.344 355.888 799.368 357.088 801.384 358.48V349.696C798.744 348.016 795 346.672 789.432 346.672C777.48 346.672 770.952 353.2 770.952 361.696C770.952 370.144 777.192 376.96 789.24 376.96ZM823.38 376.96C828.804 376.96 833.796 375.52 836.868 373.504V365.2C833.844 367.024 830.628 368.08 826.404 368.08C821.124 368.08 817.764 366.592 816.372 364.048H837.828V360.832C837.828 352.288 832.644 346.672 821.844 346.672C810.9 346.672 804.468 353.008 804.468 361.552C804.468 370.624 811.572 376.96 823.38 376.96ZM816.084 358.912C816.756 356.608 818.964 355.072 822.42 355.072C825.828 355.072 827.892 356.464 828.372 358.912H816.084ZM856.159 376.96C865.711 376.96 870.799 373.12 870.799 367.456C870.799 361.888 867.439 359.632 861.487 358.576L856.687 357.712C854.383 357.232 853.423 356.944 853.423 355.888C853.423 354.928 854.719 354.352 857.935 354.352C862.255 354.352 866.335 355.6 869.215 357.28V349.744C866.479 348.064 861.919 346.672 856.255 346.672C847.135 346.672 841.375 350.272 841.375 355.84C841.375 360.112 843.727 362.8 850.495 364.384L856.255 365.68C858.223 366.16 858.607 366.832 858.607 367.696C858.607 368.464 857.599 369.232 855.103 369.232C850.207 369.232 844.303 367.504 841.135 365.056V373.024C845.311 375.568 850.639 376.96 856.159 376.96Z" fill="url(#paint9_linear_24_91)"/>
<path d="M919.4 450H931.16V430.32H939.656V421.92H931.16V415.296L919.4 417.024V421.92H911.576V430.32H919.4V450ZM965.738 436.608V450H977.498V434.112C977.498 425.28 973.514 420.672 965.93 420.672C960.17 420.672 956.618 423.264 954.65 428.688V415.44H942.938V450H954.65V436.8C954.65 432.432 956.618 430.176 960.458 430.176C963.914 430.176 965.738 432.384 965.738 436.608ZM999.491 450.96C1011.16 450.96 1017.78 444.192 1017.78 435.6C1017.78 426.96 1011.16 420.672 999.491 420.672C987.827 420.672 981.155 427.008 981.155 435.6C981.155 444.144 987.827 450.96 999.491 450.96ZM992.915 435.792C992.915 432 995.363 429.504 999.491 429.504C1003.57 429.504 1006.02 432 1006.02 435.792C1006.02 439.584 1003.57 442.176 999.491 442.176C995.363 442.176 992.915 439.584 992.915 435.792ZM1033.01 451.008C1038.34 451.008 1042.23 448.656 1044.1 444.192V450H1055.86V421.92H1044.1V435.744C1044.1 440.016 1042.18 442.224 1038.49 442.224C1034.89 442.224 1033.25 440.256 1033.25 435.984V421.92H1021.49V438.864C1021.49 446.64 1025.48 451.008 1033.01 451.008ZM1075.36 450.96C1084.91 450.96 1090 447.12 1090 441.456C1090 435.888 1086.64 433.632 1080.69 432.576L1075.89 431.712C1073.59 431.232 1072.63 430.944 1072.63 429.888C1072.63 428.928 1073.92 428.352 1077.14 428.352C1081.46 428.352 1085.54 429.6 1088.42 431.28V423.744C1085.68 422.064 1081.12 420.672 1075.46 420.672C1066.34 420.672 1060.58 424.272 1060.58 429.84C1060.58 434.112 1062.93 436.8 1069.7 438.384L1075.46 439.68C1077.43 440.16 1077.81 440.832 1077.81 441.696C1077.81 442.464 1076.8 443.232 1074.31 443.232C1069.41 443.232 1063.51 441.504 1060.34 439.056V447.024C1064.51 449.568 1069.84 450.96 1075.36 450.96ZM1102.99 450.96C1107.55 450.96 1110.72 449.376 1112.69 446.496V450H1124.06V435.888C1124.06 426.048 1118.11 420.672 1107.26 420.672C1101.36 420.672 1097.09 422.352 1094.06 424.416V433.2C1096.66 430.992 1099.92 429.744 1103.42 429.744C1108.56 429.744 1112.3 431.952 1112.64 436.416C1110.43 433.776 1107.6 432.672 1103.66 432.672C1096.8 432.672 1092.72 436.464 1092.72 441.84C1092.72 447.024 1096.46 450.96 1102.99 450.96ZM1103.42 441.168C1103.42 439.296 1105.1 438 1107.79 438C1110.72 438 1112.69 439.248 1112.69 441.12C1112.69 443.088 1110.62 444.336 1107.74 444.336C1105.1 444.336 1103.42 443.088 1103.42 441.168ZM1151.74 436.608V450H1163.5V434.112C1163.5 425.28 1159.51 420.672 1151.93 420.672C1146.07 420.672 1142.52 423.312 1140.55 428.928V421.92H1128.94V450H1140.65V436.8C1140.65 432.432 1142.62 430.176 1146.46 430.176C1149.91 430.176 1151.74 432.384 1151.74 436.608ZM1180.45 450.96C1186.4 450.96 1190.53 448.464 1192.5 443.712V450H1204.26V415.44H1192.5V427.968C1190.58 423.072 1186.84 420.672 1181.22 420.672C1172.96 420.672 1167.16 427.104 1167.3 436.032C1167.3 444.576 1172.34 450.96 1180.45 450.96ZM1179.49 435.792C1179.49 432.144 1182.04 429.648 1186.02 429.648C1190.1 429.648 1192.55 432.144 1192.55 435.696C1192.55 439.344 1190 441.984 1185.97 441.984C1182.04 441.984 1179.49 439.44 1179.49 435.792ZM1223.77 450.96C1233.32 450.96 1238.41 447.12 1238.41 441.456C1238.41 435.888 1235.05 433.632 1229.1 432.576L1224.3 431.712C1221.99 431.232 1221.03 430.944 1221.03 429.888C1221.03 428.928 1222.33 428.352 1225.54 428.352C1229.86 428.352 1233.94 429.6 1236.82 431.28V423.744C1234.09 422.064 1229.53 420.672 1223.86 420.672C1214.74 420.672 1208.98 424.272 1208.98 429.84C1208.98 434.112 1211.34 436.8 1218.1 438.384L1223.86 439.68C1225.83 440.16 1226.22 440.832 1226.22 441.696C1226.22 442.464 1225.21 443.232 1222.71 443.232C1217.82 443.232 1211.91 441.504 1208.74 439.056V447.024C1212.92 449.568 1218.25 450.96 1223.77 450.96ZM1271.93 450.96C1283.59 450.96 1290.22 444.192 1290.22 435.6C1290.22 426.96 1283.59 420.672 1271.93 420.672C1260.26 420.672 1253.59 427.008 1253.59 435.6C1253.59 444.144 1260.26 450.96 1271.93 450.96ZM1265.35 435.792C1265.35 432 1267.8 429.504 1271.93 429.504C1276.01 429.504 1278.46 432 1278.46 435.792C1278.46 439.584 1276.01 442.176 1271.93 442.176C1267.8 442.176 1265.35 439.584 1265.35 435.792ZM1299.88 450H1311.6V434.208H1321.96V426.048H1311.4C1311.4 423.6 1312.84 421.92 1317.07 421.92C1319.23 421.92 1321.05 422.352 1322.49 423.168V415.632C1320.62 414.624 1317.98 413.856 1314 413.856C1304.88 413.856 1299.69 417.648 1299.69 424.896C1299.69 425.28 1299.69 425.664 1299.74 426.048H1292.2V434.208H1299.88V450ZM1360.58 450.96C1368.5 450.96 1374.12 444.816 1374.12 435.744C1374.12 427.2 1369.08 420.672 1360.92 420.672C1354.48 420.672 1350.45 423.552 1348.87 428.736V415.44H1337.16V450H1348.87V444.288C1350.98 448.8 1355.01 450.96 1360.58 450.96ZM1348.82 435.888C1348.82 432.288 1351.32 429.648 1355.35 429.648C1359.33 429.648 1361.83 432.24 1361.83 435.792C1361.83 439.392 1359.28 441.984 1355.25 441.984C1351.22 441.984 1348.82 439.44 1348.82 435.888ZM1395.16 450.96C1406.83 450.96 1413.45 444.192 1413.45 435.6C1413.45 426.96 1406.83 420.672 1395.16 420.672C1383.5 420.672 1376.83 427.008 1376.83 435.6C1376.83 444.144 1383.5 450.96 1395.16 450.96ZM1388.59 435.792C1388.59 432 1391.04 429.504 1395.16 429.504C1399.24 429.504 1401.69 432 1401.69 435.792C1401.69 439.584 1399.24 442.176 1395.16 442.176C1391.04 442.176 1388.59 439.584 1388.59 435.792ZM1422.56 450H1434.32V430.32H1442.81V421.92H1434.32V415.296L1422.56 417.024V421.92H1414.73V430.32H1422.56V450ZM1459.64 450.96C1469.2 450.96 1474.28 447.12 1474.28 441.456C1474.28 435.888 1470.92 433.632 1464.97 432.576L1460.17 431.712C1457.87 431.232 1456.91 430.944 1456.91 429.888C1456.91 428.928 1458.2 428.352 1461.42 428.352C1465.74 428.352 1469.82 429.6 1472.7 431.28V423.744C1469.96 422.064 1465.4 420.672 1459.74 420.672C1450.62 420.672 1444.86 424.272 1444.86 429.84C1444.86 434.112 1447.21 436.8 1453.98 438.384L1459.74 439.68C1461.71 440.16 1462.09 440.832 1462.09 441.696C1462.09 442.464 1461.08 443.232 1458.59 443.232C1453.69 443.232 1447.79 441.504 1444.62 439.056V447.024C1448.8 449.568 1454.12 450.96 1459.64 450.96Z" fill="url(#paint10_linear_24_91)"/>
<defs>
<filter id="filter0_d_24_91" x="126" y="99" width="291" height="378" filterUnits="userSpaceOnUse" color-interpolation-filters="sRGB">
<feFlood flood-opacity="0" result="BackgroundImageFix"/>
<feColorMatrix in="SourceAlpha" type="matrix" values="0 0 0 0 0 0 0 0 0 0 0 0 0 0 0 0 0 0 127 0" result="hardAlpha"/>
<feOffset dx="4" dy="4"/>
<feGaussianBlur stdDeviation="5"/>
<feComposite in2="hardAlpha" operator="out"/>
<feColorMatrix type="matrix" values="0 0 0 0 0 0 0 0 0 0 0 0 0 0 0 0 0 0 0.15 0"/>
<feBlend mode="normal" in2="BackgroundImageFix" result="effect1_dropShadow_24_91"/>
<feBlend mode="normal" in="SourceGraphic" in2="effect1_dropShadow_24_91" result="shape"/>
</filter>
<linearGradient id="paint0_linear_24_91" x1="0" y1="0" x2="1512" y2="567" gradientUnits="userSpaceOnUse">
<stop stop-color="#614385"/>
<stop offset="1" stop-color="#516395"/>
</linearGradient>
<linearGradient id="paint1_linear_24_91" x1="132" y1="105" x2="403.822" y2="462.375" gradientUnits="userSpaceOnUse">
<stop stop-color="#4399E8"/>
<stop offset="1" stop-color="#164B9E"/>
</linearGradient>
<linearGradient id="paint2_linear_24_91" x1="132" y1="105" x2="403.822" y2="462.375" gradientUnits="userSpaceOnUse">
<stop stop-color="#4399E8"/>
<stop offset="1" stop-color="#164B9E"/>
</linearGradient>
<linearGradient id="paint3_linear_24_91" x1="132" y1="105" x2="403.822" y2="462.375" gradientUnits="userSpaceOnUse">
<stop stop-color="#4399E8"/>
<stop offset="1" stop-color="#164B9E"/>
</linearGradient>
<linearGradient id="paint4_linear_24_91" x1="132" y1="105" x2="403.822" y2="462.375" gradientUnits="userSpaceOnUse">
<stop stop-color="#4399E8"/>
<stop offset="1" stop-color="#164B9E"/>
</linearGradient>
<linearGradient id="paint5_linear_24_91" x1="132" y1="105" x2="403.822" y2="462.375" gradientUnits="userSpaceOnUse">
<stop stop-color="#4399E8"/>
<stop offset="1" stop-color="#164B9E"/>
</linearGradient>
<linearGradient id="paint6_linear_24_91" x1="132" y1="105" x2="403.822" y2="462.375" gradientUnits="userSpaceOnUse">
<stop stop-color="#4399E8"/>
<stop offset="1" stop-color="#164B9E"/>
</linearGradient>
<linearGradient id="paint7_linear_24_91" x1="435" y1="241" x2="1363.61" y2="241" gradientUnits="userSpaceOnUse">
<stop stop-color="#FAFF00"/>
<stop offset="1" stop-color="#FF9900"/>
</linearGradient>
<linearGradient id="paint8_linear_24_91" x1="567" y1="284" x2="1013" y2="284" gradientUnits="userSpaceOnUse">
<stop stop-color="#FF00B8"/>
<stop offset="1" stop-color="#FFA800"/>
</linearGradient>
<linearGradient id="paint9_linear_24_91" x1="613" y1="358" x2="873" y2="358" gradientUnits="userSpaceOnUse">
<stop stop-color="#FF00B8"/>
<stop offset="1" stop-color="#FFA800"/>
</linearGradient>
<linearGradient id="paint10_linear_24_91" x1="911" y1="432" x2="1476" y2="432" gradientUnits="userSpaceOnUse">
<stop stop-color="#FF00B8"/>
<stop offset="1" stop-color="#FFA800"/>
</linearGradient>
</defs>
</svg>
